<?xml version="1.0" standalone="no"?>
<!DOCTYPE svg PUBLIC "-//W3C//DTD SVG 20010904//EN"
 "http://www.w3.org/TR/2001/REC-SVG-20010904/DTD/svg10.dtd">
<svg version="1.0" xmlns="http://www.w3.org/2000/svg"
 width="440.000000pt" height="450.000000pt" viewBox="0 0 440.000000 450.000000"
 preserveAspectRatio="xMidYMid meet">

<g transform="translate(0.000000,450.000000) scale(0.100000,-0.100000)"
fill="white" stroke="none">
<path d="M2805 4372 c-71 -47 -356 -236 -632 -419 l-503 -332 0 -219 0 -219
95 -94 c53 -52 100 -95 105 -97 6 -2 10 94 10 255 l0 259 225 152 225 152 0
-509 0 -509 -70 -52 c-38 -29 -69 -55 -69 -58 1 -4 34 -38 75 -76 l73 -68 128
89 c231 161 351 243 357 243 3 0 6 -247 6 -550 l0 -550 99 0 98 0 7 71 c3 39
6 318 6 621 l-1 549 105 75 c58 41 108 74 111 74 3 0 5 -313 5 -695 l0 -695
100 0 100 0 0 63 c1 34 3 423 6 864 l6 801 -25 17 c-28 18 -9 29 -307 -177
-240 -165 -599 -408 -604 -408 -4 0 -2 745 3 976 1 41 2 42 101 107 55 37 102
67 105 67 3 0 5 -173 5 -385 l0 -385 100 67 100 67 0 508 c0 279 -3 508 -7
507 -5 0 -66 -39 -138 -87z"/>
<path d="M3160 3855 l0 -257 23 14 c150 97 189 119 200 115 6 -3 75 -43 152
-90 l140 -84 3 -891 2 -892 100 0 100 0 0 955 0 954 -347 207 c-192 114 -354
211 -360 217 -10 7 -13 -44 -13 -248z"/>
<path d="M1348 3181 c-1 -4 -138 -135 -303 -289 l-300 -281 -3 199 -2 200
-105 0 -105 0 0 -442 0 -442 38 35 c20 20 172 161 337 314 165 153 334 312
376 353 42 41 81 73 87 71 10 -4 249 -229 472 -443 58 -56 171 -166 252 -244
l148 -142 72 1 c40 1 104 4 142 8 l70 6 -280 264 c-153 146 -331 315 -394 376
-250 242 -485 465 -492 465 -3 0 -8 -4 -10 -9z"/>
<path d="M1140 2220 l0 -90 90 0 90 0 0 90 0 90 -90 0 -90 0 0 -90z"/>
<path d="M1394 2297 c-3 -8 -4 -47 -2 -88 l3 -74 93 -3 92 -3 0 91 0 90 -90 0
c-67 0 -92 -4 -96 -13z"/>
<path d="M1140 1980 l0 -90 90 0 90 0 0 90 0 90 -90 0 -90 0 0 -90z"/>
<path d="M1394 2057 c-3 -8 -4 -47 -2 -88 l3 -74 93 -3 92 -3 0 91 0 90 -90 0
c-67 0 -92 -4 -96 -13z"/>
<path d="M633 1961 l-103 -96 0 -148 0 -147 -255 0 -255 0 0 -105 0 -105 2163
2 2162 3 0 100 0 100 -1082 3 -1083 2 0 148 0 147 -100 100 -100 100 0 -248 0
-247 -620 0 -620 0 -2 244 -3 243 -102 -96z"/>
<path d="M1090 1030 c-104 -13 -175 -69 -199 -155 -14 -52 -14 -193 0 -236 39
-116 179 -178 334 -150 85 16 143 55 174 116 22 44 25 63 26 155 0 90 -3 112
-23 152 -26 52 -94 104 -146 112 -73 11 -114 13 -166 6z m150 -116 c56 -23 74
-60 74 -154 1 -128 -40 -170 -164 -170 -78 0 -124 24 -146 75 -19 47 -18 158
2 201 9 19 17 34 18 34 0 0 19 7 41 15 54 19 126 19 175 -1z"/>
<path d="M5 898 c-3 -73 -5 -194 -3 -268 l3 -135 52 -3 53 -3 0 168 0 168 33
-53 c17 -29 51 -86 75 -127 42 -72 45 -75 81 -75 37 0 37 0 96 110 89 169 84
170 85 -22 l0 -168 55 0 55 0 0 270 0 270 -54 0 c-31 0 -58 -5 -64 -12 -6 -7
-46 -74 -89 -148 -43 -75 -82 -138 -86 -140 -4 -3 -47 63 -95 145 l-87 150
-52 3 -51 3 -7 -133z"/>
<path d="M1720 760 l0 -272 153 4 c128 3 159 7 197 25 96 44 140 121 140 244
0 119 -46 199 -140 242 -37 17 -71 21 -197 25 l-153 4 0 -272z m310 145 c53
-27 72 -69 68 -152 -5 -118 -46 -154 -185 -161 l-83 -5 0 173 0 173 84 -6 c47
-3 99 -13 116 -22z"/>
<path d="M2490 760 l0 -270 203 2 202 3 0 45 0 45 -148 3 -148 3 3 62 3 62
118 3 117 3 0 50 0 51 -107 -2 c-60 -2 -114 -2 -120 -1 -9 1 -13 18 -13 51 l0
49 143 3 142 3 3 53 3 52 -200 0 -201 0 0 -270z"/>
<path d="M3167 1015 c-9 -21 -9 -452 -1 -494 6 -30 9 -31 55 -31 l49 0 0 85 0
85 48 -1 c47 0 47 -1 116 -85 l68 -84 64 0 c65 0 76 7 49 30 -9 7 -43 43 -76
81 l-60 68 45 20 c68 30 88 68 84 163 -3 69 -6 80 -33 109 -49 52 -84 61 -251
67 -136 4 -152 3 -157 -13z m291 -101 c31 -9 55 -57 47 -95 -11 -48 -38 -59
-142 -59 l-93 0 0 80 0 80 83 0 c45 0 92 -3 105 -6z"/>
<path d="M3900 760 l0 -270 55 0 55 0 2 172 3 171 129 -171 129 -172 49 0 48
0 0 270 0 270 -55 0 -55 0 -2 -170 -3 -171 -129 171 -130 170 -48 0 -48 0 0
-270z"/>
<path d="M2467 319 c-21 -3 -43 -11 -50 -18 -14 -14 -14 -78 1 -93 6 -6 46
-16 88 -22 56 -8 80 -16 88 -29 16 -26 -24 -57 -74 -57 -52 0 -70 8 -81 38 -9
23 -11 24 -26 9 -15 -15 -15 -18 0 -41 19 -29 66 -41 133 -33 56 6 84 30 84
73 0 47 -20 61 -97 69 -73 8 -93 17 -93 45 0 23 20 30 81 30 38 0 52 -4 61
-20 16 -25 38 -26 38 -2 0 43 -68 66 -153 51z"/>
<path d="M290 200 c0 -98 3 -120 14 -120 10 0 16 13 18 42 3 40 5 42 37 43 27
1 40 -6 70 -38 44 -47 63 -58 81 -47 10 6 4 17 -25 45 l-39 36 32 19 c20 12
32 28 33 42 4 83 -16 98 -132 98 l-89 0 0 -120z m174 74 c19 -18 20 -28 6 -55
-9 -16 -22 -19 -80 -19 l-70 0 0 45 0 45 64 0 c45 0 69 -5 80 -16z"/>
<path d="M690 200 l0 -120 100 0 c82 0 100 3 100 15 0 12 -16 15 -80 15 l-80
0 0 35 0 34 68 3 c37 2 67 8 67 13 0 6 -30 11 -67 13 l-68 3 0 39 0 40 80 0
c64 0 80 3 80 15 0 12 -18 15 -100 15 l-100 0 0 -120z"/>
<path d="M1087 200 c-49 -105 -53 -120 -37 -120 11 0 26 13 35 30 15 29 18 30
86 30 67 0 71 -1 87 -30 9 -16 25 -30 35 -30 9 0 17 2 17 5 0 3 -25 57 -56
120 -51 104 -59 115 -83 115 -25 0 -32 -10 -84 -120z m116 28 l24 -53 -49 -3
c-28 -2 -52 -1 -54 1 -6 6 38 107 46 107 4 0 19 -24 33 -52z"/>
<path d="M1470 313 c0 -5 -2 -59 -5 -120 l-4 -113 100 0 c76 0 100 3 97 13 -3
8 -31 13 -81 15 l-77 3 0 104 c0 87 -3 105 -15 105 -8 0 -15 -3 -15 -7z"/>
<path d="M2040 200 c0 -107 2 -120 18 -121 147 -9 202 -2 186 22 -3 5 -41 9
-85 9 l-79 0 0 35 0 35 70 0 c56 0 70 3 70 15 0 12 -14 15 -70 15 l-70 0 0 40
0 40 80 0 c64 0 80 3 80 15 0 12 -18 15 -100 15 l-100 0 0 -120z"/>
<path d="M2780 305 c0 -11 12 -15 45 -15 l45 0 0 -105 c0 -98 1 -105 20 -105
19 0 20 7 20 105 l0 105 50 0 c38 0 50 4 50 15 0 12 -19 15 -115 15 -96 0
-115 -3 -115 -15z"/>
<path d="M3180 208 c-30 -62 -55 -117 -55 -122 0 -23 25 -14 41 13 18 30 20
31 95 31 71 0 76 -2 87 -25 7 -14 20 -25 31 -25 17 0 13 13 -36 120 -51 108
-59 120 -82 120 -23 0 -32 -12 -81 -112z m109 21 c11 -29 21 -56 21 -60 0 -11
-97 -12 -103 -1 -6 10 42 112 52 112 5 0 18 -23 30 -51z"/>
<path d="M3500 306 c0 -11 14 -16 48 -18 l47 -3 5 -105 c7 -139 24 -137 28 3
l3 107 49 0 c38 0 50 4 50 15 0 12 -19 15 -115 15 -94 0 -115 -3 -115 -14z"/>
<path d="M3890 201 c0 -99 3 -120 16 -125 9 -3 54 -6 100 -6 77 0 84 2 84 20
0 18 -7 20 -85 20 l-85 0 0 35 0 35 70 0 c55 0 70 3 70 15 0 11 -16 15 -67 17
l-68 3 0 35 0 35 83 3 c64 2 82 6 82 17 0 12 -19 15 -100 15 l-100 0 0 -119z"/>
</g>
</svg>
