<?xml version="1.0" standalone="no"?>
<!DOCTYPE svg PUBLIC "-//W3C//DTD SVG 20010904//EN"
 "http://www.w3.org/TR/2001/REC-SVG-20010904/DTD/svg10.dtd">
<svg version="1.0" xmlns="http://www.w3.org/2000/svg"
 width="1312.000000pt" height="736.000000pt" viewBox="0 0 1312.000000 736.000000"
 preserveAspectRatio="xMidYMid meet">

<g transform="translate(0.000000,736.000000) scale(0.100000,-0.100000)"
fill="white" stroke="none">
<path d="M7190 5785 c-69 -46 -353 -234 -632 -419 l-508 -335 0 -220 0 -220
96 -93 c52 -51 100 -94 105 -96 5 -2 9 101 9 255 l0 259 218 147 c120 81 221
147 225 147 4 0 7 -227 7 -504 l0 -504 -70 -52 c-39 -29 -70 -55 -68 -59 2 -3
35 -37 75 -75 l72 -68 113 79 c166 117 367 253 373 253 3 0 5 -247 5 -550 l0
-550 99 0 98 0 7 79 c3 44 6 323 6 621 l-1 541 105 75 c58 41 108 74 111 74 3
0 5 -313 5 -695 l0 -696 101 3 101 3 4 862 5 862 -25 16 c-24 16 -28 14 -213
-113 -452 -309 -684 -467 -692 -470 -10 -3 -14 808 -4 940 l5 76 99 66 c54 36
101 66 104 66 3 0 5 -173 5 -385 l0 -385 100 67 100 67 0 508 c0 279 -3 508
-7 507 -5 0 -64 -38 -133 -84z"/>
<path d="M7540 5263 l0 -255 23 14 c150 97 189 119 200 115 6 -3 75 -43 152
-90 l140 -84 3 -891 2 -892 100 0 100 0 -2 956 -3 956 -357 214 -358 213 0
-256z"/>
<path d="M5519 4390 c-123 -117 -263 -248 -311 -292 l-88 -80 0 201 0 201
-105 0 -105 0 0 -442 0 -442 38 35 c20 20 199 187 397 371 198 184 366 342
374 351 7 9 18 17 24 17 10 0 141 -123 599 -562 l279 -268 72 1 c40 1 103 4
141 8 l70 6 -280 264 c-153 146 -331 315 -394 375 -159 153 -364 350 -431 414
l-55 53 -225 -211z"/>
<path d="M5520 3630 l0 -90 90 0 90 0 0 90 0 90 -90 0 -90 0 0 -90z"/>
<path d="M5774 3707 c-3 -8 -4 -47 -2 -88 l3 -74 93 -3 92 -3 0 91 0 90 -90 0
c-67 0 -92 -4 -96 -13z"/>
<path d="M5520 3390 l0 -90 90 0 90 0 0 90 0 90 -90 0 -90 0 0 -90z"/>
<path d="M5774 3467 c-3 -8 -4 -47 -2 -88 l3 -74 93 -3 92 -3 0 91 0 90 -90 0
c-67 0 -92 -4 -96 -13z"/>
<path d="M5013 3370 l-103 -96 0 -147 0 -147 -255 0 -255 0 0 -105 0 -105
2163 2 2162 3 0 100 0 100 -1082 3 -1083 2 0 148 0 147 -100 100 -100 100 0
-248 0 -247 -620 0 -620 0 -2 244 -3 243 -102 -97z"/>
<path d="M5468 2439 c-148 -22 -208 -99 -208 -269 0 -133 32 -198 117 -241
146 -74 342 -32 402 86 22 44 25 63 26 155 0 90 -3 112 -23 152 -29 58 -95
105 -161 113 -25 4 -57 8 -71 10 -14 1 -51 -1 -82 -6z m152 -115 c56 -23 74
-60 74 -154 1 -128 -40 -170 -164 -170 -121 0 -165 52 -158 191 3 66 7 81 27
103 43 46 146 60 221 30z"/>
<path d="M4385 2318 c-3 -68 -5 -188 -3 -268 l3 -145 53 -3 52 -3 0 168 0 168
33 -53 c17 -29 51 -86 75 -127 42 -72 45 -75 81 -75 37 0 37 0 96 110 89 169
84 170 85 -22 l0 -168 55 0 55 0 0 270 0 270 -54 0 c-31 0 -58 -5 -64 -12 -6
-7 -46 -74 -89 -148 -43 -75 -82 -137 -87 -139 -5 -1 -47 64 -95 146 l-86 148
-51 3 -52 3 -7 -123z"/>
<path d="M6100 2171 l0 -271 128 0 c144 0 212 14 271 55 57 39 85 101 89 197
5 97 -15 161 -66 211 -61 60 -98 70 -269 75 l-153 4 0 -271z m311 143 c46 -23
69 -69 69 -139 0 -120 -49 -166 -187 -173 l-83 -5 0 173 0 173 86 -7 c47 -3
99 -13 115 -22z"/>
<path d="M6870 2170 l0 -270 203 2 202 3 0 48 1 47 -149 0 -148 0 3 63 3 62
118 3 117 3 0 50 0 51 -107 -2 c-60 -1 -114 -2 -120 -1 -9 1 -13 18 -13 51 l0
49 143 3 142 3 3 53 3 52 -200 0 -201 0 0 -270z"/>
<path d="M7548 2434 c-9 -9 -11 -495 -2 -518 4 -12 20 -16 55 -16 l49 0 0 85
0 85 48 -1 c47 0 47 0 116 -85 l69 -84 63 0 c35 0 64 3 64 6 0 3 -34 42 -75
87 l-75 82 45 22 c73 38 98 98 83 197 -8 56 -43 100 -98 124 -38 17 -329 31
-342 16z m297 -110 c25 -10 47 -62 40 -95 -11 -48 -38 -59 -142 -59 l-93 0 0
80 0 80 89 0 c49 0 97 -3 106 -6z"/>
<path d="M8280 2170 l0 -270 55 0 55 0 2 172 3 172 129 -172 128 -172 49 0 49
0 0 270 0 270 -55 0 -55 0 -2 -170 -3 -171 -129 171 -130 170 -48 0 -48 0 0
-270z"/>
<path d="M6865 1732 c-51 -7 -62 -13 -72 -35 -12 -26 -6 -74 10 -84 6 -4 45
-12 86 -17 51 -8 77 -16 85 -28 15 -24 -9 -47 -57 -55 -52 -8 -86 3 -98 34 -9
24 -11 25 -25 11 -20 -20 -4 -55 32 -68 53 -21 157 -7 176 23 13 20 9 75 -7
90 -8 9 -44 18 -82 22 -73 8 -93 17 -93 45 0 23 20 30 81 30 38 0 52 -4 61
-20 16 -25 38 -26 38 -2 0 38 -66 65 -135 54z"/>
<path d="M4670 1610 c0 -100 3 -120 15 -120 9 0 15 10 16 28 2 55 3 56 37 58
28 1 41 -7 79 -47 50 -53 51 -53 72 -40 11 7 6 17 -24 46 l-39 36 32 19 c28
17 32 25 32 64 0 64 -21 76 -132 76 l-88 0 0 -120z m174 74 c19 -18 20 -28 6
-55 -9 -16 -22 -19 -80 -19 l-70 0 0 45 0 45 64 0 c45 0 69 -5 80 -16z"/>
<path d="M5070 1611 l0 -120 84 -3 c100 -4 116 -1 116 18 0 11 -17 14 -80 14
l-80 0 0 35 0 34 68 3 c37 2 67 8 67 13 0 6 -30 11 -67 13 l-68 3 0 39 0 40
80 0 c64 0 80 3 80 15 0 12 -18 15 -100 15 l-100 0 0 -119z"/>
<path d="M5467 1610 c-49 -105 -53 -120 -37 -120 11 0 26 13 35 30 15 29 18
30 86 30 67 0 71 -1 87 -30 14 -25 52 -43 52 -24 0 3 -25 57 -56 120 -51 104
-58 114 -83 114 -25 0 -32 -9 -84 -120z m119 22 l23 -52 -56 0 c-40 0 -54 3
-50 13 32 80 41 97 50 94 5 -1 20 -26 33 -55z"/>
<path d="M5850 1723 c0 -5 -3 -59 -6 -120 l-5 -113 101 0 c77 0 101 3 98 13
-3 8 -31 13 -81 15 l-77 3 0 104 c0 87 -3 105 -15 105 -8 0 -15 -3 -15 -7z"/>
<path d="M6420 1610 c0 -107 2 -120 18 -120 123 -3 171 -2 180 4 27 16 -3 26
-79 26 l-79 0 0 35 0 35 70 0 c56 0 70 3 70 15 0 12 -14 15 -70 15 l-70 0 0
40 0 40 80 0 c64 0 80 3 80 15 0 12 -18 15 -100 15 l-100 0 0 -120z"/>
<path d="M7160 1715 c0 -11 12 -15 45 -15 l45 0 0 -104 c0 -80 3 -105 14 -109
8 -3 17 -3 20 0 3 4 6 53 6 110 l0 103 50 0 c38 0 50 4 50 15 0 12 -19 15
-115 15 -96 0 -115 -3 -115 -15z"/>
<path d="M7559 1618 c-30 -62 -54 -117 -54 -122 0 -23 25 -14 41 13 18 30 20
31 94 31 73 0 75 -1 92 -30 11 -19 22 -28 31 -24 12 4 3 30 -41 125 -50 108
-58 119 -82 119 -23 0 -32 -11 -81 -112z m110 21 c11 -29 21 -56 21 -60 0 -11
-81 -12 -96 -1 -12 8 30 112 45 112 5 0 18 -23 30 -51z"/>
<path d="M7880 1716 c0 -11 14 -16 48 -18 l47 -3 5 -105 c7 -139 24 -137 28 3
l3 107 49 0 c38 0 50 4 50 15 0 12 -19 15 -115 15 -94 0 -115 -3 -115 -14z"/>
<path d="M8270 1611 c0 -86 3 -120 13 -123 6 -3 50 -5 97 -4 72 1 85 4 88 19
3 15 -6 17 -82 17 l-86 0 0 35 0 35 70 0 c55 0 70 3 70 15 0 11 -16 15 -67 17
l-68 3 0 35 0 35 83 3 c64 2 82 6 82 17 0 12 -19 15 -100 15 l-100 0 0 -119z"/>
</g>
</svg>
